<svg xmlns="http://www.w3.org/2000/svg" width="820" height="220" viewBox="0 0 820 220" font-family="-apple-system,BlinkMacSystemFont,'Segoe UI',Helvetica,Arial,sans-serif">
  <style>
    .t { fill: #1f2328; font-size: 14px; font-weight: 600; }
    .s { fill: #59636e; font-size: 12px; }
    .v { fill: #818b98; }
    .ln { stroke: #d1d9e0; }
    @media (prefers-color-scheme: dark) {
      .t { fill: #f0f6fc; }
      .s { fill: #9198a1; }
      .v { fill: #6e7681; }
      .ln { stroke: #3d444d; }
    }
  </style>
  <defs>
    <linearGradient id="relleno" x1="0" y1="0" x2="0" y2="1">
      <stop offset="0" stop-color="#3fb950" stop-opacity=".35"/>
      <stop offset="1" stop-color="#3fb950" stop-opacity="0"/>
    </linearGradient>
    <clipPath id="barra"><rect x="440" y="70" width="360" height="10" rx="5"/></clipPath>
  </defs>

  <text x="20" y="28" class="t">Contribuciones acumuladas</text>
  <text x="20" y="46" class="s">últimos 6 meses · commits, PR, issues y revisiones</text>
  <line x1="24" y1="180" x2="396" y2="180" class="ln"/>
  <path d="M24.0,179.4 L38.9,178.3 L53.8,178.3 L68.6,174.0 L83.5,173.9 L98.4,173.8 L113.3,173.8 L128.2,173.8 L143.0,173.8 L157.9,173.8 L172.8,167.2 L187.7,166.9 L202.6,166.7 L217.4,166.1 L232.3,164.4 L247.2,161.4 L262.1,158.9 L277.0,156.5 L291.8,153.5 L306.7,150.9 L321.6,149.1 L336.5,146.6 L351.4,144.9 L366.2,141.8 L381.1,71.0 L396.0,70.0 L396,180 L24,180 Z" fill="url(#relleno)"/>
  <path d="M24.0,179.4 L38.9,178.3 L53.8,178.3 L68.6,174.0 L83.5,173.9 L98.4,173.8 L113.3,173.8 L128.2,173.8 L143.0,173.8 L157.9,173.8 L172.8,167.2 L187.7,166.9 L202.6,166.7 L217.4,166.1 L232.3,164.4 L247.2,161.4 L262.1,158.9 L277.0,156.5 L291.8,153.5 L306.7,150.9 L321.6,149.1 L336.5,146.6 L351.4,144.9 L366.2,141.8 L381.1,71.0 L396.0,70.0" fill="none" stroke="#3fb950" stroke-width="2.5" stroke-linecap="round"/>
  <circle cx="396.0" cy="70.0" r="4" fill="#3fb950"/>
  <text x="388.0" y="74.0" class="s" text-anchor="end">1021</text>
  <g class="s" text-anchor="start"><text x="24.0" y="204">abr</text><text x="68.6" y="204">may</text><text x="143.0" y="204">jun</text><text x="202.6" y="204">jul</text><text x="262.1" y="204">ago</text><text x="336.5" y="204">sep</text></g>

  <text x="440" y="28" class="t">Lenguajes</text>
  <text x="440" y="46" class="s">por volumen de código en mis repos</text>
  <g clip-path="url(#barra)"><rect x="440.0" y="70" width="173.2" height="10" fill="#58a6ff"/><rect x="613.2" y="70" width="78.9" height="10" fill="#3fb950"/><rect x="692.1" y="70" width="61.0" height="10" fill="#d29922"/><rect x="753.1" y="70" width="22.1" height="10" fill="#bc8cff"/><rect x="775.2" y="70" width="20.3" height="10" fill="#f778ba"/><rect x="795.4" y="70" width="4.6" height="10" fill="#8b949e"/></g>
  <circle cx="446" cy="108" r="5" fill="#58a6ff"/><text x="458" y="112" class="s">TypeScript <tspan class="v">48,1 %</tspan></text><circle cx="446" cy="138" r="5" fill="#3fb950"/><text x="458" y="142" class="s">GDScript <tspan class="v">21,9 %</tspan></text><circle cx="446" cy="168" r="5" fill="#d29922"/><text x="458" y="172" class="s">CSS <tspan class="v">16,9 %</tspan></text><circle cx="626" cy="108" r="5" fill="#bc8cff"/><text x="638" y="112" class="s">HTML <tspan class="v">6,1 %</tspan></text><circle cx="626" cy="138" r="5" fill="#f778ba"/><text x="638" y="142" class="s">Python <tspan class="v">5,6 %</tspan></text><circle cx="626" cy="168" r="5" fill="#8b949e"/><text x="638" y="172" class="s">Otros <tspan class="v">1,3 %</tspan></text>
</svg>
